<?xml version="1.0" encoding="UTF-8"?>
<!-- Generated by Pixelmator Pro 3.8 -->
<svg width="1125" height="706" viewBox="0 0 1125 706" xmlns="http://www.w3.org/2000/svg">
    <path id="Shape" fill="#ff9400" fill-rule="evenodd" stroke="none" d="M 528.289001 188.5 C 536.658203 161.375 541.829956 145.175049 545.181274 135 C 548.532593 124.824951 554.190857 108.849976 557.755249 99.5 C 561.319641 90.150024 567.097717 76.875 570.59552 70 C 574.093323 63.125 579.217407 54.063354 581.982361 49.863037 C 584.747314 45.66272 590.061646 38.687622 593.791931 34.363037 C 597.522217 30.03833 604.333496 23.478516 608.928162 19.785522 C 613.522827 16.092529 621.060974 11.198975 625.679626 8.911011 C 630.298279 6.623047 637.322266 3.875244 641.288574 2.80481 C 645.254883 1.734253 653.024841 0.605225 658.555176 0.295532 C 665.755615 -0.107544 670.827026 0.184692 676.417969 1.324829 C 680.712158 2.200562 686.987366 4.217163 690.362793 5.806152 C 693.738281 7.395142 699.047974 10.781372 702.162109 13.331055 C 705.276367 15.880737 709.963013 21.183716 712.576904 25.115601 C 715.190796 29.047485 718.666382 36.142456 720.300415 40.882202 C 722.819946 48.190552 723.347412 51.490112 723.771729 62.596924 C 724.143188 72.323242 723.826294 78.358887 722.540405 86.049194 C 721.588013 91.744629 719.478516 100.475952 717.852417 105.452271 C 716.22644 110.428467 712.556885 119.446899 709.697998 125.493164 C 706.839111 131.539429 701.848145 140.539429 698.606934 145.493164 C 695.365723 150.446899 690.139709 157.650024 686.993652 161.5 C 683.847656 165.349976 676.76239 172.828247 671.248718 178.118164 C 665.735046 183.408203 656.335999 191.011841 650.361938 195.015015 C 644.387878 199.018311 634.549988 204.701904 628.5 207.645386 C 622.450012 210.588745 613.450012 214.388062 608.5 216.088135 C 603.549988 217.788208 595.674988 220.190796 591 221.427002 C 582.5 223.674805 582.5 223.674805 577.289734 241.087402 C 574.424072 250.664307 566.430664 278.185791 559.52655 302.246216 C 552.622437 326.306641 543.857422 356.906677 540.048828 370.246216 C 536.240234 383.585815 527.85437 413.400024 521.413635 436.5 C 514.9729 459.599976 507.506042 486.375 504.820618 496 C 502.135193 505.625 499.6698 515.591064 499.341919 518.14679 C 498.825745 522.170959 499.02478 522.942932 500.827576 523.907715 C 502.5354 524.821716 506.285583 523.932129 521.704651 518.955505 C 532.042114 515.619019 548.599976 510.458679 558.5 507.488098 C 568.400024 504.517517 584.375 499.871277 594 497.163086 C 603.625 494.454895 623.200012 489.280212 637.5 485.663757 C 651.799988 482.047302 675.424988 476.336487 690 472.973083 C 704.574951 469.60968 724.824951 465.136047 735 463.031677 C 745.175049 460.927307 763.175049 457.372192 775 455.131409 C 786.824951 452.890686 805.724976 449.477417 817 447.546387 C 828.275024 445.615356 847.694702 442.47168 860.154785 440.560364 C 872.61499 438.649109 891.514893 435.926514 902.154785 434.510193 C 912.794678 433.093872 929.150024 431.068848 938.5 430.010132 C 947.849976 428.951416 961.125 427.614014 968 427.038025 C 974.875 426.462036 989.467529 425.529907 1000.427979 424.966675 C 1013.85791 424.27655 1026.085815 424.26886 1037.927979 424.943237 C 1047.592529 425.493591 1059.276733 426.661072 1063.892822 427.537537 C 1068.508789 428.414063 1076.442627 430.617004 1081.52356 432.432983 C 1086.60437 434.248962 1093.276978 437.40448 1096.351563 439.445251 C 1099.426147 441.486023 1104.172974 445.597229 1106.900269 448.581238 C 1109.891602 451.854248 1112.720337 456.28656 1114.030518 459.753357 C 1115.288574 463.082703 1116.248047 468.023865 1116.311157 471.5 C 1116.373657 474.937927 1115.652344 479.752075 1114.621826 482.774048 C 1113.460693 486.178772 1111.171021 489.739929 1108.161621 492.821411 C 1105.597778 495.446716 1101.282104 498.664978 1098.571289 499.973083 C 1095.140747 501.628479 1091.287109 502.487793 1085.893799 502.799988 C 1079.439087 503.173645 1077.41394 502.894714 1073.767822 501.129639 C 1071.360474 499.964233 1067.200073 496.473267 1064.522583 493.371948 C 1061.107788 489.416687 1057.839966 486.887878 1053.577148 484.901794 C 1050.234741 483.344482 1042.324951 481.042053 1036 479.785217 C 1025.44458 477.687683 1021.830322 477.5 992 477.5 C 968.691162 477.5 953.843872 478.011353 939.5 479.308044 C 928.5 480.30249 912.525024 482.007507 904 483.097046 C 895.474976 484.186584 880.625 486.223572 871 487.623718 C 861.375 489.023865 843.599976 491.91626 831.5 494.05127 C 819.400024 496.186279 798.474976 500.16748 785 502.898315 C 771.525024 505.62915 749.699951 510.181091 736.5 513.013855 C 723.300049 515.846558 703.5 520.406189 692.5 523.146362 C 681.5 525.886536 663.724976 530.528809 653 533.462585 C 642.275024 536.396301 623.599976 541.795837 611.5 545.461548 C 599.400024 549.127197 579.150024 555.532715 566.5 559.695923 C 553.849976 563.859131 534.049988 570.755615 522.5 575.021423 C 510.950012 579.28717 492.5 586.266968 481.5 590.532043 C 465.284912 596.819214 460.175293 598.375183 454.5 598.754211 C 450.650024 599.011292 445.606445 598.709534 443.292053 598.083618 C 440.977661 597.457703 437.152649 595.495239 434.792053 593.722656 C 432.060059 591.671204 429.451355 588.402161 427.61499 584.728699 C 425.592773 580.683594 424.589966 576.94519 424.261902 572.228821 C 423.914001 567.227051 424.451965 562.676697 426.35791 554.5 C 427.768066 548.450012 430.766602 536.525024 433.021301 528 C 435.27594 519.474976 439.798828 502.713928 443.072083 490.753174 C 446.345337 478.792419 451.529236 459.892456 454.591797 448.753174 C 457.654358 437.613953 462.794739 419.154175 466.014832 407.731445 C 469.234924 396.308777 477.064453 368.633728 483.413757 346.231445 C 489.763123 323.829163 499.407104 289.299988 504.844788 269.5 C 514.731445 233.5 514.731445 233.5 510.364868 233.19519 C 507.963318 233.027527 501.637085 233.376648 496.306641 233.971008 C 490.976196 234.56543 486.501404 235.165222 486.362671 235.304016 C 486.223938 235.442749 481.331726 251.518616 475.49115 271.028137 C 469.650574 290.537659 463.353821 311.450012 461.498291 317.5 C 459.642761 323.549988 454.448181 341.549988 449.954712 357.5 C 445.461304 373.450012 437.130188 403.718445 431.441223 424.763245 C 425.752197 445.807983 418.381897 473.075745 415.062683 485.358154 C 411.74353 497.640625 406.538269 517.54718 403.495422 529.59491 C 400.452637 541.6427 397.088196 556.322937 396.01886 562.21759 C 394.949524 568.112244 393.597717 577.623962 393.014771 583.354736 C 392.289368 590.486206 392.272095 596.574219 392.960022 602.646851 C 393.512817 607.526794 394.652954 613.835693 395.493652 616.666626 C 396.334351 619.49762 398.491699 623.946167 400.28772 626.552429 C 402.31073 629.488037 405.539307 632.413086 408.773071 634.23999 C 412.232788 636.194641 415.961243 637.367493 419.830566 637.718323 C 423.59082 638.059326 427.514465 637.706482 430.856262 636.726868 C 433.709717 635.890381 438.893494 633.349731 442.375793 631.080933 C 446.12146 628.640564 450.911194 626.503235 454.103638 625.847656 C 458.146973 625.017334 460.579773 625.036377 463.806702 625.923523 C 466.175354 626.574768 469.834045 628.66217 471.937134 630.562134 C 474.040222 632.462158 476.766357 636.353943 477.995239 639.210571 C 479.875488 643.58136 480.161072 645.709656 479.797302 652.640686 C 479.431946 659.601135 478.801819 662.00946 475.729126 668.188477 C 473.729431 672.209778 470.007385 677.868286 467.457886 680.762817 C 464.908447 683.657349 459.980774 688.053406 456.507568 690.53186 C 453.034363 693.010254 447.258667 696.368408 443.672668 697.994385 C 440.086731 699.6203 433.855896 701.87738 429.826355 703.010071 C 425.105713 704.336975 418.409851 705.218445 411 705.488342 C 404.674988 705.71875 397.25 705.493958 394.5 704.988892 C 391.75 704.483765 386.215881 702.949097 382.202026 701.578491 C 378.18811 700.207886 372.227417 697.460571 368.956055 695.473328 C 365.684692 693.486084 360.504028 689.571533 357.443481 686.774353 C 354.382935 683.977173 349.898865 678.913879 347.478882 675.522644 C 345.05896 672.131409 341.261658 665.563965 339.040466 660.928406 C 336.819214 656.292786 333.902527 648.157715 332.55896 642.850403 C 331.215332 637.543152 329.580688 627.507324 328.926453 620.548584 C 328.018372 610.890869 328.00946 604.73291 328.888794 594.530334 C 329.522339 587.179077 330.902588 576.473083 331.956055 570.739319 C 333.00946 565.005554 335.048096 555.181091 336.486389 548.907166 C 337.924622 542.63324 341.720825 527.599976 344.922424 515.5 C 350.719788 493.589783 350.735291 493.493347 348.711487 491.874817 C 346.785767 490.334656 346.290405 490.503601 339.242981 495.104187 C 335.152954 497.774231 329.27887 500.755554 326.189514 501.72937 C 323.035583 502.723572 317.487061 503.5 313.536255 503.5 C 309.029785 503.5 304.737 502.820007 301.596436 501.608643 C 298.899414 500.568359 295.074402 498.249329 293.096436 496.455139 C 291.118408 494.66095 288.188354 490.934509 286.585327 488.174194 C 283.670593 483.155396 283.670593 483.155396 278.784912 490.112366 C 276.097778 493.938721 270.884399 500.277832 267.199585 504.19928 C 263.514832 508.120728 257.202026 513.490601 253.171143 516.132324 C 249.140198 518.774048 242.720154 521.940979 238.904297 523.169983 C 234.277771 524.660095 229.387512 525.42041 224.225525 525.452271 C 219.436646 525.481812 214.295837 524.813477 210.745056 523.699768 C 206.597656 522.398926 203.387878 520.401917 199.174377 516.500977 C 195.01709 512.652039 192.443848 509.150085 190.209961 504.301208 C 188.486694 500.560547 186.538635 494.349976 185.880981 490.5 C 185.093811 485.891479 184.898071 478.375366 185.308105 468.5 C 185.660217 460.018921 186.806458 449.154053 187.945618 443.5 C 189.053711 438 190.9552 429.34845 192.171143 424.274292 C 193.387085 419.200195 194.062195 414.728821 193.671387 414.338013 C 193.280518 413.947205 190.157104 414.521423 186.730408 415.614014 C 180.5 417.600525 180.5 417.600525 179.168549 424.550232 C 178.436249 428.37262 176.530029 436.736267 174.932526 443.136108 C 173.335022 449.536011 170.365204 459.401611 168.332947 465.059692 C 166.300659 470.717773 161.830353 481.006531 158.398865 487.923584 C 154.967407 494.840576 149.383575 504.693054 145.990326 509.817932 C 142.597107 514.94281 135.473633 523.674866 130.1604 529.222412 C 124.847198 534.77002 117.799988 541.300415 114.5 543.734375 C 111.200012 546.168335 104.607086 550.13092 99.84906 552.540161 C 95.091034 554.949402 87.693787 557.83844 83.410706 558.960266 C 78.177826 560.330933 72.473694 561 66.021759 561 C 60.626282 561 53.845001 560.329224 50.541565 559.468811 C 47.308289 558.626648 41.929199 556.489136 38.587982 554.718811 C 35.246796 552.948486 29.360138 548.50824 25.506531 544.851624 C 21.303741 540.863647 16.553101 534.975769 13.634674 530.137878 C 10.958771 525.701965 7.505707 518.312134 5.961243 513.716003 C 4.416779 509.119873 2.384766 500.643738 1.445648 494.880127 C 0.102081 486.634216 -0.145966 480.68158 0.281799 466.950378 C 0.664734 454.657837 1.458588 446.544312 2.967621 439.5 C 4.145813 434 6.891113 424.148315 9.068237 417.607361 C 11.245361 411.066406 15.233368 401.166382 17.93042 395.607361 C 20.627502 390.04834 25.234009 381.588806 28.167084 376.808472 C 31.100189 372.028137 36.372864 364.482483 39.884125 360.040405 C 43.395386 355.598267 50.145386 348.291321 54.884125 343.802673 C 59.622864 339.314026 66.875 333.411804 71 330.686646 C 75.125 327.961487 81.785706 324.19281 85.801544 322.311829 C 89.817383 320.430847 96.526855 318.016174 100.711487 316.945923 C 105.745361 315.658447 111.685394 315 118.265625 315 C 124.093048 315 130.755554 315.656372 134.355652 316.585205 C 137.735046 317.457031 143.44516 319.714233 147.044769 321.601196 C 150.820709 323.580627 156.190674 327.669373 159.737915 331.265991 C 163.119537 334.694702 167.468323 340.142639 169.401855 343.37262 C 171.335419 346.602539 174.036499 352.677551 175.404297 356.87262 C 176.772064 361.067688 178.394196 366.454102 179.009033 368.842468 C 180.036072 372.832092 180.335632 373.132568 182.695251 372.540344 C 184.107788 372.185852 187.791748 370.616577 190.881775 369.053162 C 193.971802 367.489807 198.565247 364.388611 201.089355 362.161682 C 203.613525 359.934814 207.309509 355.724915 209.302673 352.806396 C 211.295837 349.887878 214.967163 342.395569 217.461182 336.156738 C 219.9552 329.917969 223.795227 321.367981 225.994629 317.156738 C 228.19397 312.945557 231.80365 307.39325 234.016052 304.818359 C 236.418213 302.022705 240.456421 298.928589 244.040344 297.137695 C 247.341187 295.48822 252.419983 293.841553 255.326477 293.478394 C 258.291931 293.10791 262.385376 293.295959 264.65448 293.906982 C 266.878357 294.505798 270.228394 296.009827 272.098938 297.249329 C 273.969543 298.48877 276.540649 301.59906 277.8125 304.161011 C 279.502258 307.564697 280.12207 310.52655 280.114014 315.159546 C 280.107483 318.916443 279.12915 324.759827 277.713013 329.5 C 276.398499 333.900024 271.858643 348.299988 267.624512 361.5 C 263.39032 374.700012 257.956482 391.799988 255.549255 399.5 C 253.142029 407.200012 249.970764 418 248.501953 423.5 C 247.033203 429 245.58667 437.593323 245.287476 442.596313 C 244.890625 449.233337 245.118103 452.477722 246.128906 454.596313 C 247.213379 456.869446 248.279663 457.564575 251.03894 457.797363 C 253.441467 458.000061 255.667847 457.354309 258.03186 455.769226 C 259.939331 454.490234 263.763489 450.437988 266.529907 446.764343 C 269.296387 443.090637 273.745117 435.684204 276.415955 430.305542 C 279.086792 424.92688 282.951294 416.2453 285.003784 411.013123 C 287.056213 405.780884 291.966431 390.819031 295.915283 377.764465 C 299.864197 364.709961 306.246704 343.559937 310.098694 330.764465 C 313.950623 317.968994 318.915283 303.739624 321.131226 299.143616 C 323.458557 294.316528 326.960632 288.986694 329.423218 286.52417 C 332.048645 283.898743 335.87384 281.442627 339.380676 280.130554 C 342.541992 278.947693 347.393677 278.004333 350.287537 278.009766 C 353.682678 278.016113 357.307922 278.861328 360.685608 280.43396 C 364.276611 282.105896 366.736755 284.156128 368.685608 287.101074 C 371.03595 290.652527 371.550842 292.602478 371.808289 298.92688 C 372.083008 305.675171 371.586182 308.188171 367.246765 322 C 364.56842 330.525024 358.94397 347.849976 354.748108 360.5 C 350.552246 373.150024 345.512573 388.829468 343.54895 395.343201 C 341.585327 401.856995 339.07312 410.631958 337.966248 414.843201 C 336.859436 419.054443 335.467102 425.61792 334.872192 429.428711 C 334.077087 434.521729 334.093079 437.367249 334.932495 440.169006 C 335.768372 442.958923 336.762878 444.153381 338.642761 444.625183 C 340.164978 445.007263 342.517212 444.646912 344.417847 443.740601 C 346.18158 442.899475 349.758545 439.837891 352.366699 436.937073 C 354.974854 434.036194 358.958496 428.495544 361.219299 424.624451 C 363.480103 420.753418 367.230591 413.516846 369.55365 408.543091 C 371.87677 403.569397 376.070129 392.525024 378.872375 384 C 381.674561 375.474976 386.471985 359.5 389.533325 348.5 C 392.594666 337.5 399.177307 312.075012 404.161438 292 C 409.145569 271.924988 413.779846 252.799988 414.459839 249.5 C 415.557373 244.17334 415.516785 243.46991 414.098083 243.23175 C 413.219116 243.084167 405.525024 243.859253 397 244.954102 C 388.474976 246.04895 373.69574 248.082153 364.157166 249.472351 C 354.618591 250.862549 343.786255 252 340.085266 252 C 336.384338 252 331.169006 251.2547 328.495605 250.343811 C 325.612244 249.361328 321.932983 246.985596 319.450928 244.50354 C 316.778564 241.831238 314.631042 238.405212 313.50708 235.021301 C 312.287231 231.348694 311.905457 227.979248 312.262756 224.039185 C 312.546204 220.912964 313.689941 216.587769 314.804321 214.427612 C 315.918762 212.267456 318.556152 208.860229 320.665283 206.856079 C 322.774353 204.851807 326.299988 202.317627 328.5 201.224365 C 330.700012 200.131226 334.974976 198.720215 338 198.088989 C 341.025024 197.457642 351.825012 196.297485 362 195.510864 C 372.174988 194.724243 389.049988 193.616211 399.5 193.048584 C 409.950012 192.481079 420.839111 191.758545 423.698059 191.442871 C 428.896118 190.869019 428.896118 190.869019 430.48053 185.18457 C 431.351929 182.057983 433.443237 175.449951 435.127808 170.5 C 436.812378 165.550049 439.674805 158.277954 441.48877 154.339844 C 443.302673 150.401855 446.817871 144.040039 449.300293 140.202637 C 451.782715 136.365234 456.278687 130.799683 459.291382 127.834717 C 462.304077 124.869751 467.256287 121.185425 470.296326 119.647339 C 473.336304 118.109253 478.675781 116.365845 482.161804 115.773193 C 487.438232 114.876099 489.469788 114.979004 494.289307 116.387207 C 498.473572 117.609741 501.179504 119.213135 504.0495 122.17041 C 506.737 124.939697 508.543335 128.061279 509.638611 131.828857 C 510.76532 135.704468 511.083679 139.385986 510.686707 143.947754 C 510.373047 147.551514 508.770996 155 507.126587 160.5 C 505.482178 166 503.143738 174.465332 501.930115 179.311768 C 500.41394 185.366211 500.046265 188.446289 500.755066 189.155029 C 501.446045 189.846069 506.161865 189.908203 515.037842 189.343384 L 528.289001 188.5 Z M 77.55365 497.936584 C 80.014679 497.975098 83.640167 496.987 86.781464 495.421631 C 89.627258 494.003479 93.985291 490.585754 96.465973 487.826599 C 98.946686 485.067505 103.067017 479.455627 105.622314 475.355835 C 108.177582 471.256104 111.990326 463.907349 114.095062 459.025391 C 116.199799 454.143433 119.509857 444.633118 121.450775 437.891357 C 123.391693 431.149597 125.258362 423.533142 125.598938 420.96582 C 126.193665 416.482422 126.085388 416.215637 122.85907 414.214966 C 121.011566 413.069275 118.056641 410.638062 116.292542 408.812256 C 114.528412 406.986389 112.363617 403.469238 111.481812 400.996277 C 110.43808 398.069153 110.091797 395.042419 110.489563 392.323242 C 110.825623 390.026062 112.101166 386.661743 113.324097 384.847046 C 114.547028 383.032349 117.065918 380.524414 118.921692 379.273804 C 120.777435 378.023193 123.537109 377 125.054291 377 C 127.763794 377 127.792999 376.935486 126.698395 373.368896 C 126.085449 371.371826 124.354614 368.508484 122.852081 367.00592 C 121.349548 365.503418 118.828064 364.015625 117.24881 363.699768 C 115.669586 363.383911 112.830017 363.475891 110.938721 363.904114 C 109.047424 364.332336 105.939026 365.491577 104.031158 366.480225 C 102.123291 367.468811 98.001038 370.838989 94.870575 373.969421 C 91.740143 377.099854 87.170227 382.774902 84.71524 386.580566 C 82.260223 390.38623 78.427429 397.138 76.197906 401.584412 C 73.968353 406.030823 70.592285 414.130859 68.695496 419.584412 C 66.798706 425.037964 63.960266 434.674988 62.387848 441 C 59.985687 450.662598 59.526581 454.577881 59.514435 465.505127 C 59.503784 475.093689 59.95636 479.966187 61.237091 484.052124 C 62.24176 487.257324 64.343719 490.994751 66.222351 492.916199 C 68.00882 494.743469 70.377136 496.606323 71.485229 497.055847 C 72.593353 497.505432 75.324158 497.901733 77.55365 497.936584 Z M 616.5 455.873047 C 612.650024 455.822388 607.474976 455.385376 605 454.902039 C 602.525024 454.418701 597.758606 452.674805 594.407959 451.026733 C 591.057312 449.378601 585.967834 445.682129 583.097961 442.812256 C 579.93689 439.651184 576.54657 434.816406 574.497253 430.54718 C 572.636719 426.671204 570.345337 419.572388 569.405273 414.771912 C 568.079895 408.003784 567.829712 403.175842 568.291138 393.271912 C 568.618408 386.247375 569.792053 376.224976 570.89917 371 C 572.006348 365.775024 574.075684 357.535278 575.497803 352.689514 C 576.919922 347.84375 579.939941 339.068726 582.208923 333.189514 C 584.477966 327.310303 589.651733 315.974976 593.706238 308 C 597.760742 300.025024 604.854248 287.875 609.469604 281 C 614.084961 274.125 621.303772 264.674988 625.511414 260 C 629.718994 255.325012 636.162781 248.850647 639.830811 245.612549 C 643.49884 242.374512 650.513977 237.101868 655.419983 233.89563 C 660.325989 230.689392 668.02179 226.733887 672.52179 225.105591 C 677.02179 223.477295 683.900391 221.702026 687.807617 221.160645 C 692.252686 220.544556 697.621094 220.516357 702.151001 221.085205 C 706.374146 221.615479 711.913086 223.183594 715.44519 224.848999 C 719.358154 226.693848 723.428589 229.756042 726.951904 233.505432 C 731.768555 238.631226 732.525757 239.102966 733.451904 237.55481 C 734.02832 236.591003 735.863403 233.85022 737.529785 231.464111 C 739.196289 229.078003 742.571289 225.526367 745.029785 223.571655 C 747.488403 221.616821 751.57312 219.32373 754.107056 218.47583 C 756.640869 217.62793 760.915894 216.857422 763.607056 216.76355 C 766.298096 216.669678 770.114258 216.916138 772.08728 217.311279 C 774.060303 217.706299 777.608887 219.685303 779.973145 221.708984 C 782.33728 223.732666 785.100708 227.213501 786.113892 229.444214 C 787.205322 231.847107 787.964966 235.842285 787.978027 239.247437 C 787.993774 243.369141 786.901367 248.177734 784.115845 256.247437 C 781.979614 262.43634 773.828369 283.924988 766.002197 304 C 758.175903 324.075012 749.731323 346.341431 747.236328 353.480957 C 744.296387 361.893494 742.532593 368.80011 742.224609 373.105591 C 741.805908 378.956299 742.009033 380.008972 743.925781 381.925781 C 745.45105 383.45105 746.760254 383.906006 748.301147 383.446228 C 749.510498 383.085388 751.849121 382.025146 753.498169 381.090088 C 755.147095 380.15509 758.972168 376.4151 761.998169 372.779114 C 765.02417 369.143066 769.684204 362.313232 772.353638 357.601624 C 775.023193 352.890015 779.365356 344.189697 782.00293 338.267578 C 784.640503 332.345398 789.717773 319.400024 793.285889 309.5 C 796.854004 299.599976 808.119019 266.299988 818.319214 235.5 C 828.519409 204.699951 841.881958 163.974976 848.013794 145 C 854.14563 126.025024 860.765259 106 862.723999 100.5 C 864.682739 95 868.225708 86.39624 870.597046 81.380493 C 873.319702 75.621948 876.860474 70.124146 880.204346 66.463013 C 883.848267 62.473511 887.527344 59.703613 892 57.58252 C 897.76416 54.848999 899.518921 54.5 907.5 54.5 C 915.245728 54.5 917.120605 54.848389 920.953247 57 C 923.402588 58.375 926.856323 61.403076 928.628052 63.729126 C 930.626221 66.352295 932.301636 70.13623 933.040161 73.693726 C 934.0177 78.401978 933.958496 80.778931 932.710205 86.9646 C 931.873901 91.109131 927.818726 104.175049 923.69873 116 C 919.578735 127.824951 913.214111 145.824951 909.555176 156 C 905.896118 166.175049 900.85791 180.495972 898.359009 187.824463 C 895.860107 195.152954 894.033691 201.367065 894.300293 201.633667 C 894.566895 201.900269 897.645874 201.171997 901.142578 200.015137 C 904.63916 198.858398 910.557373 197.521484 914.294189 197.044067 C 918.397827 196.519897 923.942017 196.563354 928.294189 197.153931 C 932.257446 197.69165 937.957642 199.245728 940.961304 200.6073 C 943.965088 201.968872 948.806274 204.921753 951.719604 207.169434 C 954.651978 209.431641 959.074707 214.351929 961.626831 218.190796 C 964.162476 222.005005 967.271729 228.086426 968.536133 231.705078 C 969.800659 235.32373 971.390991 242.020447 972.070313 246.58667 C 972.831787 251.705017 973.073975 259.032715 972.701904 265.694397 C 972.369873 271.637512 971.223633 281.263306 970.154785 287.085205 C 969.085938 292.907043 966.128906 303.902344 963.58374 311.519165 C 961.038574 319.136047 956.531982 330.347717 953.569092 336.434021 C 950.606201 342.520325 945.627808 351.549988 942.505859 356.5 C 939.383911 361.450012 933.42688 369.690063 929.268188 374.81134 C 925.109375 379.932556 918.359497 387.130249 914.268433 390.806213 C 910.17749 394.482178 903.605957 399.698242 899.665161 402.397461 C 895.724365 405.09668 888.900024 408.996643 884.5 411.064148 C 880.099976 413.131592 873.680908 415.740723 870.235352 416.862183 C 866.789673 417.983643 860.264771 419.485291 855.735352 420.199158 C 851.205933 420.913025 843.378784 421.460083 838.341797 421.414917 C 833.304932 421.36969 826.104858 420.576477 822.341797 419.652222 C 818.578857 418.727905 813.025024 416.769348 810 415.299866 C 806.974976 413.830383 801.996704 410.124268 798.937012 407.064026 C 795.877319 404.003784 792.086182 399.199951 790.512085 396.388733 C 787.650146 391.277527 787.650146 391.277527 782.237305 398.888733 C 779.260254 403.074951 773.826416 409.581787 770.162231 413.348389 C 766.498047 417.115051 761.22583 421.901428 758.446411 423.984863 C 755.66687 426.068298 750.560303 429.202759 747.098511 430.950317 C 743.636597 432.697815 737.930664 434.836731 734.418457 435.70343 C 729.956299 436.804626 725.37854 437.12793 719.220825 436.776855 C 713.416382 436.445923 708.814331 435.569092 705.737183 434.207947 C 703.167725 433.07135 698.758179 429.983215 695.93811 427.345337 C 693.118042 424.707458 689.913757 420.791077 688.817505 418.642212 C 686.82428 414.735229 686.82428 414.735229 682.239197 420.117615 C 679.717407 423.077942 674.919434 428.138977 671.577087 431.364441 C 668.23468 434.589844 662.125 439.5177 658 442.315247 C 653.875 445.112732 647.432495 448.69104 643.68335 450.266968 C 639.934204 451.842957 633.859192 453.769775 630.18335 454.548828 C 626.507507 455.327881 620.349976 455.923767 616.5 455.873047 Z M 1024.5 404.638611 C 1010.921875 404.94928 1007.391479 404.705566 1001.176636 403.02887 C 997.148682 401.942139 991.00708 399.651917 987.528442 397.939392 C 984.049805 396.226868 978.738525 392.62854 975.725464 389.943054 C 972.712402 387.257568 968.843628 382.872986 967.128052 380.199463 C 965.412476 377.52594 963.123535 372.765808 962.041748 369.621277 C 960.959839 366.476807 959.799683 360.663147 959.463623 356.702026 C 959.05542 351.890808 959.373047 346.853699 960.420532 341.528381 C 961.282837 337.143982 963.553467 330.261292 965.466309 326.233459 C 967.578735 321.785156 971.112427 316.636902 974.467285 313.11969 C 977.583984 309.852051 982.497681 306.06604 985.745239 304.429993 C 990.833984 301.866333 992.560181 301.528992 1000.660278 301.515381 C 1009.262207 301.500916 1010.084473 301.685425 1014.151733 304.541565 C 1016.533936 306.214478 1019.491943 309.364441 1020.725098 311.541565 C 1022.233521 314.204834 1022.960938 317.135986 1022.94812 320.5 C 1022.937622 323.25 1022.382568 326.458191 1021.7146 327.629333 C 1021.046509 328.800415 1018.8125 331.614197 1016.75 333.882202 C 1013.779663 337.148438 1013 338.806458 1013 341.856873 C 1013 344.530884 1013.730103 346.495789 1015.388794 348.285461 C 1016.702637 349.703125 1019.634521 351.363037 1021.904297 351.974243 C 1024.685669 352.723206 1027.167847 352.771545 1029.518311 352.122559 C 1031.436279 351.592957 1034.557617 350.200439 1036.45459 349.028076 C 1038.688599 347.647339 1040.889282 344.889221 1042.701782 341.198242 C 1044.955688 336.608398 1045.479004 334.235657 1045.391968 329 C 1045.324219 324.922913 1044.460205 320.360535 1043.073975 316.760315 C 1041.858521 313.603516 1038.517334 307.75354 1035.649048 303.760315 C 1032.780884 299.767151 1027.614136 292.954895 1024.167358 288.621948 C 1020.720703 284.289001 1016.078247 278.060242 1013.85083 274.780273 C 1011.623413 271.500244 1008.232788 265.643677 1006.316284 261.765564 C 1004.399658 257.887512 1001.910278 251.071533 1000.784302 246.618958 C 999.124756 240.056335 998.842407 236.627441 999.293091 228.511597 C 999.68042 221.535645 1000.621704 216.272827 1002.397339 211.154785 C 1003.798828 207.114868 1006.364746 201.503174 1008.099365 198.684204 C 1009.833862 195.865234 1013.100586 191.367554 1015.358887 188.689453 C 1017.617065 186.011475 1022.172607 181.767334 1025.4823 179.258301 C 1028.791992 176.749268 1035.622192 172.730103 1040.6604 170.327026 C 1045.69873 167.923828 1053.70459 164.954712 1058.451294 163.72876 C 1065.680908 161.861816 1069.712646 161.504517 1083.290894 161.528198 C 1097.938721 161.553711 1100.070068 161.783325 1105.418823 163.913208 C 1108.674194 165.209473 1113.264282 168.045898 1115.619019 170.216553 C 1117.973877 172.387085 1120.866089 176.157715 1122.046387 178.595825 C 1123.226563 181.033813 1124.429199 185.641968 1124.718872 188.836182 C 1125.063965 192.642578 1124.695313 196.536133 1123.648926 200.135742 C 1122.770874 203.15625 1120.709595 207.481323 1119.068359 209.746948 C 1117.427124 212.012573 1113.975342 215.102173 1111.397705 216.612793 C 1108.449463 218.340576 1104.752686 219.521851 1101.431641 219.797241 C 1097.73645 220.103638 1094.270752 219.599609 1089.881958 218.117554 C 1086.43335 216.952881 1081.554565 216 1079.040283 216 C 1076.522583 216 1072.93811 216.820923 1071.061646 217.827271 C 1069.187744 218.832275 1066.832275 221.187744 1065.827271 223.061646 C 1064.822266 224.935547 1064.004395 228.050781 1064.009766 229.984375 C 1064.015137 231.917969 1065.131836 235.889221 1066.491333 238.809387 C 1067.850708 241.729553 1073.279419 249.496094 1078.554932 256.068359 C 1083.830444 262.640625 1090.54895 271.844177 1093.484985 276.520691 C 1096.420898 281.197266 1100.24707 288.443787 1101.987305 292.624207 C 1103.727661 296.804626 1105.784668 303.211792 1106.55835 306.862488 C 1107.332153 310.513123 1107.973145 318.356445 1107.982666 324.292175 C 1107.992188 330.227844 1107.300171 338.552856 1106.444824 342.792175 C 1105.50293 347.460327 1102.961914 354.443604 1100.001465 360.5 C 1096.814453 367.019653 1093.09668 372.736755 1089.319214 376.926819 C 1086.132568 380.461548 1080.81958 385.348022 1077.512573 387.785522 C 1074.205688 390.223083 1068.479736 393.740479 1064.78833 395.60199 C 1061.096924 397.463501 1054.121948 400.175903 1049.28833 401.629578 C 1041.738892 403.899963 1038.244507 404.324158 1024.5 404.638611 Z M 649.476013 392.519043 C 651.112793 392.211365 654.309448 391.060425 656.579651 389.961426 C 658.849915 388.862427 663.634277 384.931458 667.21167 381.225952 C 670.789001 377.520447 676.52478 370.216187 679.957825 364.994324 C 683.390808 359.772461 688.475281 350.775024 691.256592 345 C 694.037842 339.224976 697.875977 330.674988 699.785767 326 C 701.695435 321.325012 704.801147 313 706.687378 307.5 C 708.573608 302 710.782837 294.125 711.596802 290 C 712.448853 285.681946 712.798096 280.802979 712.420166 278.5 C 712.05896 276.299988 711.134155 273.270142 710.364868 271.766907 C 709.595581 270.263733 707.646118 268.351257 706.032715 267.516907 C 704.419312 266.682617 701.389526 266.009888 699.299683 266.021973 C 697.209839 266.034058 693.699951 266.877136 691.5 267.895508 C 689.299988 268.91394 685.474976 271.314697 683 273.230652 C 680.525024 275.146545 675.725037 280.070374 672.333374 284.172485 C 668.941772 288.274597 663.418335 296.180481 660.059143 301.74115 C 656.699951 307.301758 651.889404 316.497314 649.369019 322.175659 C 646.848572 327.854065 643.233643 337.134216 641.335815 342.798218 C 639.437988 348.462219 637.236023 356.489319 636.442566 360.636169 C 635.64917 364.78302 635 370.966003 635 374.376099 C 635 378.817139 635.638367 381.842102 637.25 385.038086 C 638.696899 387.90741 640.749268 390.138611 643 391.289246 C 645.197815 392.412781 647.607239 392.8703 649.476013 392.519043 Z M 860.553711 360.996277 C 862.890869 360.998413 866.753662 359.93042 869.676147 358.474121 C 872.463989 357.084839 877.237061 353.33551 880.282959 350.142273 C 883.328735 346.948975 887.998657 340.990356 890.6604 336.900879 C 893.322144 332.811401 897.817383 324.523193 900.649658 318.482727 C 903.482056 312.4422 907.158447 303.450012 908.819458 298.5 C 910.480469 293.549988 912.630371 285.674988 913.596924 281 C 914.563477 276.325012 915.387085 269.349976 915.427124 265.5 C 915.467163 261.650024 914.94751 256.681335 914.272339 254.458496 C 913.597046 252.235657 911.734863 249.162048 910.133911 247.628296 C 908.319702 245.890198 905.711304 244.636841 903.210205 244.301392 C 900.205566 243.898376 897.853149 244.391418 893.848633 246.263489 C 890.717163 247.727417 886.158569 251.19635 882.851685 254.631958 C 879.745117 257.859375 875.145142 263.747498 872.629639 267.716675 C 870.114014 271.685852 866.304321 278.435852 864.163452 282.716675 C 862.022705 286.997498 858.167603 295.840149 855.59668 302.367004 C 853.025635 308.89386 849.927124 318.118896 848.71106 322.867004 C 847.223389 328.675537 846.5 334.479797 846.5 340.607727 C 846.5 347.188843 846.981934 350.727783 848.237061 353.364563 C 849.192505 355.371582 851.442505 357.908936 853.237061 359.003113 C 855.072632 360.122253 858.273315 360.994141 860.553711 360.996277 Z M 602.439697 173.629517 C 605.999573 172.33728 611.969421 169.463623 615.706055 167.24353 C 619.442749 165.023438 625.200012 161.209961 628.5 158.769165 C 631.799988 156.328247 638.605774 150.024048 643.623962 144.759644 C 648.642151 139.495239 655.246704 131.432495 658.300781 126.842529 C 661.354797 122.252686 665.671265 114.672852 667.892822 109.998657 C 670.11438 105.324341 673.072327 97.512207 674.466003 92.638184 C 676.040039 87.133423 677 81.24707 677 77.099976 C 677 72.165161 676.413086 69.259888 674.75 65.961914 C 673.311584 63.109375 671.237549 60.847534 669 59.691162 C 666.497009 58.397583 664.166443 58.025879 660.81842 58.385986 C 658.24353 58.662964 654.328552 59.812012 652.118469 60.939575 C 649.908386 62.067017 645.647705 65.383911 642.65033 68.310303 C 639.652954 71.236694 634.863953 77.201538 632.008179 81.565552 C 629.152405 85.929443 624.870422 93.550049 622.492676 98.5 C 620.114868 103.449951 616.268555 112.449951 613.945251 118.5 C 611.622009 124.550049 608.218872 134.068359 606.382813 139.6521 C 604.546814 145.235718 601.730591 154.460693 600.124634 160.1521 C 598.518677 165.843384 596.92627 171.732788 596.585938 173.239502 C 595.967224 175.978882 595.967224 175.978882 602.439697 173.629517 Z"/>
</svg>
